<svg width="135" height="39" viewBox="0 0 135 39" fill="none" xmlns="http://www.w3.org/2000/svg">
<g clip-path="url(#clip0_41_1183)">
<path d="M16 6.25L0 19.25L16 32.25" stroke="#15C196" stroke-width="2" stroke-linecap="round" stroke-linejoin="round"/>
<path d="M34 0L20 38.5" stroke="#15C196" stroke-width="2" stroke-linecap="round" stroke-linejoin="round"/>
<path d="M60.944 28.202C60.9653 28.3727 60.976 28.554 60.976 28.746C60.9973 28.938 60.9973 29.1193 60.976 29.29C60.976 29.354 60.9653 29.418 60.944 29.482C60.944 29.546 60.9333 29.61 60.912 29.674C60.8907 29.6953 60.88 29.7167 60.88 29.738C60.88 29.7593 60.8693 29.7807 60.848 29.802C60.8267 29.8233 60.816 29.8447 60.816 29.866C60.7307 29.994 60.6133 30.09 60.464 30.154C60.4213 30.2393 60.3787 30.3353 60.336 30.442C60.2933 30.5487 60.2507 30.6447 60.208 30.73C60.1653 30.858 60.1333 30.9327 60.112 30.954C60.112 30.9753 60.0907 30.9647 60.048 30.922C60.0267 31.4553 60.016 32.074 60.016 32.778C60.016 33.5033 59.9947 34.0793 59.952 34.506C59.952 34.7833 59.984 35.1033 60.048 35.466C60.1333 35.8287 60.0587 36.0953 59.824 36.266C59.696 36.3727 59.6213 36.3193 59.6 36.106C59.6 35.914 59.6213 35.6687 59.664 35.37C59.7067 35.0927 59.7173 34.8687 59.696 34.698C59.6747 34.122 59.664 33.4393 59.664 32.65C59.664 31.8607 59.6213 31.1567 59.536 30.538C59.5147 30.6873 59.504 30.826 59.504 30.954C59.504 31.082 59.4827 31.21 59.44 31.338C59.44 31.3167 59.3973 31.306 59.312 31.306C59.2907 31.2847 59.2373 31.2527 59.152 31.21C59.088 31.1673 59.056 31.1353 59.056 31.114C59.0347 31.05 59.0133 30.986 58.992 30.922C58.992 30.858 58.992 30.794 58.992 30.73C58.928 30.8367 58.8533 30.9327 58.768 31.018C58.704 31.1033 58.6507 31.1673 58.608 31.21C58.5653 31.2527 58.5013 31.2953 58.416 31.338C58.3947 31.3807 58.3733 31.434 58.352 31.498C58.352 31.562 58.3307 31.6153 58.288 31.658C58.2667 31.7433 58.224 31.8287 58.16 31.914C58.1173 32.0207 58.0747 32.106 58.032 32.17C58.0107 32.1913 57.9893 32.234 57.968 32.298C57.9467 32.3833 57.9253 32.4153 57.904 32.394C57.8613 32.2447 57.84 32.0953 57.84 31.946C57.84 31.818 57.8187 31.69 57.776 31.562C57.776 31.5193 57.7547 31.498 57.712 31.498C57.6693 31.498 57.648 31.5087 57.648 31.53C57.6053 31.6793 57.584 31.8287 57.584 31.978C57.584 32.1273 57.5627 32.266 57.52 32.394C57.4987 32.4367 57.4773 32.4153 57.456 32.33C57.4347 32.2447 57.4027 32.1913 57.36 32.17C57.3173 32.042 57.2747 31.9353 57.232 31.85C57.2107 31.7647 57.168 31.658 57.104 31.53C57.0613 31.4233 57.0187 31.3273 56.976 31.242C56.9547 31.178 56.9227 31.1247 56.88 31.082C56.8587 31.0393 56.8587 31.0393 56.88 31.082C56.88 31.082 56.8373 31.0287 56.752 30.922C56.6667 30.8153 56.592 30.73 56.528 30.666V30.634C56.5067 30.634 56.496 30.6447 56.496 30.666C56.4533 30.922 56.432 31.178 56.432 31.434C56.432 31.7113 56.4107 31.978 56.368 32.234C56.368 32.234 56.2827 32.234 56.112 32.234C56.0267 32.234 55.984 32.234 55.984 32.234C55.92 31.8713 55.8987 31.6153 55.92 31.466C55.9627 31.338 55.92 31.0927 55.792 30.73C55.5573 30.9007 55.4507 31.1567 55.472 31.498C55.4933 31.8393 55.4827 32.1487 55.44 32.426C55.4187 32.5327 55.3973 32.6927 55.376 32.906C55.376 33.1193 55.3547 33.1727 55.312 33.066C55.248 32.7673 55.216 32.4687 55.216 32.17C55.2373 31.8713 55.2267 31.5727 55.184 31.274C55.184 31.2953 55.1413 31.306 55.056 31.306L54.864 31.21C54.864 31.2313 54.8533 31.242 54.832 31.242C54.832 31.2633 54.832 31.2847 54.832 31.306C54.832 31.3273 54.8 31.2847 54.736 31.178C54.672 31.0927 54.6293 31.05 54.608 31.05L54.576 31.018L54.32 30.986C54.2987 30.986 54.2667 30.9647 54.224 30.922C54.2027 30.9007 54.192 30.9007 54.192 30.922C54.1493 31.2633 54.128 31.594 54.128 31.914C54.128 32.234 54.096 32.554 54.032 32.874C54.032 32.9593 54.0107 32.9167 53.968 32.746C53.9467 32.5967 53.9253 32.4793 53.904 32.394C53.8827 32.0953 53.872 31.786 53.872 31.466C53.8933 31.1673 53.8613 30.8793 53.776 30.602C53.7547 30.4953 53.7547 30.57 53.776 30.826C53.7973 31.082 53.7547 31.2633 53.648 31.37C53.6053 31.434 53.584 31.3913 53.584 31.242C53.584 31.0927 53.5627 30.9753 53.52 30.89L53.424 30.442C53.4027 30.378 53.3813 30.314 53.36 30.25C53.36 30.2073 53.3387 30.1647 53.296 30.122C53.2107 30.0367 53.1467 29.962 53.104 29.898C53.04 29.8127 52.9973 29.7273 52.976 29.642C52.976 29.6207 52.9653 29.5993 52.944 29.578C52.944 29.5567 52.944 29.5353 52.944 29.514C52.9227 29.2153 52.912 28.906 52.912 28.586C52.9333 28.266 52.944 27.9673 52.944 27.69V22.858C52.944 22.1113 52.944 21.7167 52.944 21.674C52.944 21.6313 52.944 21.706 52.944 21.898C52.944 22.0473 52.9333 22.2073 52.912 22.378C52.8907 22.5273 52.8587 22.5593 52.816 22.474C52.7947 22.4953 52.7627 22.5273 52.72 22.57C52.6987 22.5913 52.656 22.6553 52.592 22.762C52.528 22.8473 52.4533 22.9327 52.368 23.018C52.304 23.082 52.24 23.1673 52.176 23.274L50.928 25.034C50.864 25.098 50.7893 25.1833 50.704 25.29C50.64 25.3753 50.5547 25.4607 50.448 25.546C50.3627 25.738 50.2987 26.0153 50.256 26.378C50.2347 26.7193 50.2133 26.954 50.192 27.082C50.1707 27.1673 50.16 27.2847 50.16 27.434C50.1813 27.562 50.1387 27.6473 50.032 27.69C49.9467 27.7113 49.904 27.6473 49.904 27.498C49.9253 27.3487 49.9253 27.2313 49.904 27.146C49.8827 26.8687 49.872 26.602 49.872 26.346C49.872 26.0687 49.8507 25.7913 49.808 25.514C49.744 25.4713 49.68 25.4073 49.616 25.322C49.616 25.3007 49.6053 25.29 49.584 25.29L49.392 24.97C49.2427 24.714 49.104 24.4473 48.976 24.17C48.8693 23.8927 48.7307 23.6153 48.56 23.338C48.5387 23.3167 48.5067 23.2633 48.464 23.178C48.3147 22.986 48.144 22.8153 47.952 22.666L47.888 22.602L47.792 22.474C47.7707 22.474 47.76 22.474 47.76 22.474C47.76 22.474 47.76 22.5593 47.76 22.73V27.658C47.76 27.914 47.76 28.17 47.76 28.426C47.7813 28.682 47.792 28.938 47.792 29.194C47.792 29.2793 47.792 29.3647 47.792 29.45C47.792 29.514 47.7707 29.5887 47.728 29.674C47.6853 29.7593 47.664 29.802 47.664 29.802C47.6427 29.8447 47.6107 29.8873 47.568 29.93C47.44 30.058 47.344 30.1327 47.28 30.154C47.28 30.154 47.2587 30.1753 47.216 30.218C47.152 30.3033 47.12 30.3673 47.12 30.41C47.12 30.41 47.1307 30.3993 47.152 30.378C47.1733 30.3567 47.184 30.3567 47.184 30.378C47.2053 30.378 47.2053 30.3887 47.184 30.41C47.184 30.4313 47.1733 30.442 47.152 30.442C47.152 30.442 47.1307 30.4633 47.088 30.506C47.088 30.5273 47.0667 30.5593 47.024 30.602C46.9387 30.6873 46.8213 30.7833 46.672 30.89C46.544 30.9967 46.4053 31.0393 46.256 31.018C46.0427 30.9753 45.936 30.954 45.936 30.954C45.9573 30.954 46.0107 30.954 46.096 30.954C46.1813 30.9753 46.2453 30.9753 46.288 30.954C46.352 30.954 46.2987 30.9433 46.128 30.922C46.1067 30.922 46.0853 30.9113 46.064 30.89C46.0427 30.89 46.0107 30.89 45.968 30.89C45.9467 30.89 45.9147 30.9113 45.872 30.954C45.8293 31.018 45.7867 31.0393 45.744 31.018L45.488 30.762C45.488 30.6767 45.4667 30.6553 45.424 30.698C45.3387 30.7407 45.328 30.858 45.392 31.05C45.456 31.242 45.4347 31.3273 45.328 31.306C45.2213 31.2633 45.2 31.1247 45.264 30.89C45.3493 30.6767 45.328 30.5807 45.2 30.602C45.136 30.602 45.1147 30.666 45.136 30.794C45.1573 30.9433 45.1787 31.0713 45.2 31.178C45.2213 31.306 45.1893 31.3593 45.104 31.338C44.9973 31.2953 44.944 31.1993 44.944 31.05C44.9653 30.9007 44.976 30.7727 44.976 30.666C44.9333 30.666 44.8907 30.6873 44.848 30.73C44.72 30.8153 44.6027 30.9007 44.496 30.986C44.4107 31.0927 44.3147 31.1993 44.208 31.306L43.824 31.786C43.8027 31.8073 43.7813 31.85 43.76 31.914C43.7387 31.9993 43.7173 32.0313 43.696 32.01C43.6533 31.7967 43.632 31.5833 43.632 31.37C43.632 31.1567 43.6107 30.9433 43.568 30.73C43.5467 30.7513 43.504 30.762 43.44 30.762C43.3973 30.7833 43.3547 30.8153 43.312 30.858C43.2907 30.922 43.2693 30.9967 43.248 31.082C43.248 31.1673 43.2267 31.242 43.184 31.306C43.1627 31.3273 43.1413 31.3167 43.12 31.274C43.0987 31.2313 43.0773 31.1993 43.056 31.178C43.0133 31.1353 42.96 31.0607 42.896 30.954C42.832 30.8473 42.7573 30.8047 42.672 30.826C42.5867 30.8473 42.5227 30.8793 42.48 30.922C42.4587 30.986 42.3947 31.018 42.288 31.018C42.1387 31.018 42.0107 30.9647 41.904 30.858C41.8187 30.7513 41.712 30.666 41.584 30.602C41.4347 30.5807 41.4027 30.6553 41.488 30.826C41.5733 30.9967 41.5413 31.2953 41.392 31.722C41.3707 31.7433 41.3493 31.722 41.328 31.658C41.3067 31.594 41.2853 31.5513 41.264 31.53C41.2427 31.4873 41.2213 31.4447 41.2 31.402C41.1787 31.3807 41.1573 31.3487 41.136 31.306C41.0507 31.178 40.976 31.0393 40.912 30.89C40.848 30.7407 40.784 30.5913 40.72 30.442L40.336 30.218C40.336 30.218 40.2933 30.1967 40.208 30.154C40.016 30.0473 39.8987 29.93 39.856 29.802C39.8133 29.6953 39.7813 29.61 39.76 29.546C39.76 29.4607 39.76 29.386 39.76 29.322V8.714C39.76 8.47933 39.8347 8.28733 39.984 8.138C40.0053 8.09533 40.0267 8.074 40.048 8.074C40.0693 8.05267 40.0907 8.03133 40.112 8.01C40.1333 8.01 40.144 8.01 40.144 8.01C40.144 7.98867 40.1547 7.978 40.176 7.978C40.2827 7.914 40.3893 7.882 40.496 7.882C40.6027 7.86067 40.7093 7.85 40.816 7.85H46.128C46.2347 7.85 46.352 7.85 46.48 7.85C46.6293 7.82867 46.768 7.82867 46.896 7.85C47.3867 7.85 47.664 8.074 47.728 8.522C47.7707 8.714 47.7813 8.91667 47.76 9.13C47.76 9.34333 47.76 9.546 47.76 9.738V15.05L47.888 15.434H52.944V9.738C52.944 9.546 52.9333 9.34333 52.912 9.13C52.8907 8.89533 52.912 8.67133 52.976 8.458C53.0827 8.05267 53.36 7.85 53.808 7.85C53.936 7.82867 54.064 7.82867 54.192 7.85C54.3413 7.85 54.4693 7.85 54.576 7.85H60.08C60.208 7.85 60.304 7.87133 60.368 7.914C60.432 7.93533 60.5067 7.96733 60.592 8.01C60.784 8.138 60.9013 8.33 60.944 8.586C60.9867 8.778 60.9973 8.98067 60.976 9.194C60.9547 9.40733 60.944 9.59933 60.944 9.77V28.202ZM45.52 31.178C45.456 31.1353 45.4453 31.0287 45.488 30.858C45.5307 30.9433 45.5947 31.05 45.68 31.178C45.7867 31.3273 45.84 31.4127 45.84 31.434C45.84 31.4767 45.7333 31.3913 45.52 31.178ZM88.3508 29.546C88.3294 29.5673 88.3188 29.5993 88.3188 29.642C88.3188 29.6633 88.3081 29.6847 88.2868 29.706C88.2441 29.7913 88.2228 29.834 88.2228 29.834C88.2014 29.9193 88.1694 29.9727 88.1268 29.994C88.0841 30.0153 88.0414 30.0473 87.9988 30.09L87.8708 30.186C87.8068 30.4633 87.7534 30.73 87.7108 30.986C87.6894 31.2633 87.6574 31.5407 87.6148 31.818C87.5934 31.9247 87.5721 32.0847 87.5508 32.298C87.5508 32.5113 87.5294 32.5647 87.4868 32.458C87.4228 32.1807 87.3908 31.9033 87.3908 31.626C87.4121 31.3487 87.4014 31.0713 87.3588 30.794C87.3588 30.7727 87.3374 30.7727 87.2948 30.794C87.2734 30.8367 87.2521 30.858 87.2308 30.858C87.1881 30.8793 87.1348 30.9113 87.0708 30.954C87.0068 30.9967 86.9321 31.0073 86.8468 30.986C86.8254 30.986 86.7934 30.9647 86.7508 30.922C86.5801 30.922 86.3988 30.8473 86.2068 30.698C86.1854 30.762 86.1748 30.8367 86.1748 30.922C86.1961 31.0287 86.1748 31.1033 86.1108 31.146C86.0468 31.1887 86.0148 31.1567 86.0148 31.05C86.0148 30.9433 86.0041 30.858 85.9828 30.794C85.9828 30.794 85.9721 30.698 85.9508 30.506C85.9508 30.3353 85.8548 30.2927 85.6628 30.378C85.6414 30.3993 85.6094 30.4313 85.5668 30.474C85.5454 30.5167 85.5028 30.57 85.4388 30.634C85.3748 30.7193 85.3001 30.794 85.2148 30.858C85.1934 30.8793 85.1614 30.9113 85.1188 30.954C85.0974 31.018 85.0654 31.0713 85.0228 31.114C84.9588 31.1567 84.8948 31.146 84.8308 31.082C84.7881 31.0393 84.7454 31.0073 84.7028 30.986C84.6814 30.986 84.6281 30.9967 84.5428 31.018C84.4788 31.0607 84.4468 31.0927 84.4468 31.114C84.4468 31.114 84.4361 31.114 84.4148 31.114C84.4148 31.114 84.4148 31.1247 84.4148 31.146C84.4148 31.146 84.3934 31.1673 84.3508 31.21C84.2228 31.3593 84.1268 31.53 84.0628 31.722C83.9988 31.9353 83.9241 32.1273 83.8388 32.298C83.7961 32.3833 83.7428 32.4793 83.6788 32.586C83.6361 32.714 83.5614 32.81 83.4548 32.874C83.4334 33.1513 83.4121 33.4287 83.3908 33.706C83.3908 33.9833 83.3694 34.2607 83.3268 34.538C83.3054 34.602 83.2841 34.698 83.2628 34.826C83.2628 34.954 83.2414 34.986 83.1988 34.922C83.1348 34.794 83.1028 34.6553 83.1028 34.506C83.1028 34.378 83.0921 34.2393 83.0708 34.09C83.0494 33.8553 83.0388 33.6313 83.0388 33.418C83.0388 33.2047 83.0174 32.9913 82.9748 32.778C82.8468 32.6713 82.7508 32.5753 82.6868 32.49C82.6014 32.362 82.5054 32.2233 82.3988 32.074C82.3134 31.9247 82.2174 31.7753 82.1108 31.626C82.0254 31.4767 81.9401 31.338 81.8548 31.21C81.7908 31.082 81.7161 30.954 81.6308 30.826C81.6094 30.7833 81.5774 30.7407 81.5347 30.698L81.4388 30.538H81.4068C81.3854 30.538 81.3534 30.4847 81.3108 30.378C81.2894 30.2927 81.2574 30.218 81.2148 30.154C81.3214 30.2607 81.3534 30.2927 81.3108 30.25C81.2894 30.2073 81.2361 30.1433 81.1508 30.058C81.0868 29.9727 81.0441 29.93 81.0228 29.93L80.9908 29.898L80.8948 29.738C80.8948 29.7167 80.8841 29.706 80.8628 29.706C80.8628 29.6847 80.8628 29.6633 80.8628 29.642C80.7988 29.4713 80.7774 29.2793 80.7987 29.066C80.8201 28.8313 80.8308 28.6287 80.8308 28.458V20.874C80.8308 21.2367 80.8414 21.4073 80.8628 21.386C80.8841 21.3647 80.9054 21.2687 80.9268 21.098C80.9481 20.9273 80.9481 20.7887 80.9268 20.682C80.9054 20.554 80.8521 20.5753 80.7668 20.746L80.6388 20.938C80.5961 20.9807 80.5748 21.0127 80.5748 21.034C80.5961 21.034 80.5854 21.0553 80.5428 21.098C80.5428 21.098 80.5321 21.1087 80.5108 21.13C80.5108 21.13 80.5108 21.1407 80.5108 21.162C80.4041 21.3113 80.2974 21.4713 80.1908 21.642C80.1054 21.8127 80.0094 21.9833 79.9028 22.154C79.7321 22.4313 79.5614 22.7193 79.3908 23.018C79.2201 23.3167 79.0388 23.6047 78.8468 23.882C78.8254 23.946 78.7934 24.01 78.7508 24.074C78.7081 24.138 78.6654 24.1913 78.6228 24.234C78.5588 24.3193 78.4841 24.4047 78.3988 24.49C78.3348 24.5753 78.2494 24.6393 78.1428 24.682C78.1214 24.7033 78.0894 24.7353 78.0468 24.778C78.0254 24.8207 77.9828 24.8953 77.9188 25.002C77.8974 25.0233 77.8654 25.034 77.8228 25.034C77.8014 25.2687 77.7801 25.6313 77.7588 26.122C77.7588 26.5913 77.7481 27.1033 77.7268 27.658C77.7268 28.2127 77.7161 28.7353 77.6948 29.226C77.6948 29.6953 77.6841 30.0473 77.6628 30.282C77.6628 30.3033 77.6414 30.314 77.5988 30.314C77.5561 30.314 77.5348 30.3033 77.5348 30.282C77.5134 29.9833 77.4921 29.514 77.4708 28.874C77.4708 28.234 77.4708 27.5833 77.4708 26.922C77.4708 26.2607 77.4494 25.738 77.4068 25.354C77.4068 25.354 77.3748 25.322 77.3108 25.258L77.2788 25.29C77.2788 25.29 77.2788 25.3007 77.2788 25.322C77.2788 25.322 77.2681 25.322 77.2468 25.322C77.2468 25.3647 77.2254 25.4073 77.1828 25.45C77.1401 25.5353 77.0868 25.6207 77.0228 25.706C76.9588 25.77 76.8841 25.8233 76.7988 25.866C76.7561 25.9727 76.7454 26.1113 76.7668 26.282C76.7881 26.4527 76.7454 26.5273 76.6388 26.506C76.5321 26.4633 76.5001 26.3673 76.5428 26.218C76.5854 26.0473 76.5854 25.898 76.5428 25.77C76.5001 25.7273 76.4574 25.674 76.4148 25.61C76.3721 25.546 76.3294 25.5033 76.2868 25.482C76.2228 25.418 76.1908 25.386 76.1908 25.386C76.1694 25.4713 76.1374 25.5567 76.0948 25.642C76.0734 25.7273 76.0521 25.7913 76.0308 25.834C76.0308 25.7273 75.9988 25.5993 75.9348 25.45C75.8921 25.4927 75.8708 25.5247 75.8708 25.546C75.8708 25.546 75.8494 25.5673 75.8068 25.61C75.7641 25.674 75.7214 25.7487 75.6788 25.834C75.6361 25.9193 75.5934 25.994 75.5508 26.058C75.5294 26.0793 75.4868 26.122 75.4228 26.186C75.3801 26.2287 75.3374 26.2393 75.2948 26.218C75.2521 26.1967 75.2201 26.1753 75.1988 26.154C75.1774 26.1113 75.1454 26.0793 75.1028 26.058C74.9961 25.9513 74.9214 25.7913 74.8788 25.578C74.8361 25.4287 74.7934 25.29 74.7508 25.162C74.7294 25.0127 74.6974 24.8633 74.6548 24.714C74.5694 24.6713 74.4948 24.618 74.4308 24.554C74.3881 24.4687 74.3348 24.394 74.2708 24.33L74.1108 24.074C73.9401 23.7967 73.7694 23.5193 73.5988 23.242C73.4281 22.9433 73.2574 22.6553 73.0868 22.378L72.7988 21.898C72.7348 21.8127 72.6708 21.7273 72.6068 21.642C72.5641 21.5567 72.5108 21.4713 72.4468 21.386L72.3508 21.194C72.3294 21.1513 72.3081 21.1087 72.2868 21.066C72.2654 21.0233 72.2334 20.9807 72.1908 20.938C72.1908 20.9167 72.1801 20.906 72.1588 20.906C72.1588 20.906 72.1588 20.8953 72.1588 20.874C72.1588 20.874 72.1374 20.8527 72.0948 20.81C72.0948 20.7033 72.0734 20.6287 72.0308 20.586C72.0094 20.522 71.9988 20.5753 71.9988 20.746V28.874C71.9988 28.9807 71.9988 29.098 71.9988 29.226C72.0201 29.3327 72.0201 29.4393 71.9988 29.546C71.9988 29.5033 71.9881 29.5247 71.9668 29.61C71.9454 29.674 71.9454 29.6953 71.9668 29.674C71.9454 29.7593 71.8921 29.8447 71.8068 29.93L71.6148 30.122C71.5934 30.2073 71.5721 30.2927 71.5508 30.378C71.5508 30.4847 71.5294 30.5913 71.4868 30.698C71.4441 30.9753 71.3908 31.242 71.3268 31.498C71.2841 31.7753 71.2201 32.0527 71.1348 32.33C71.1134 32.394 71.0814 32.5007 71.0388 32.65C70.9961 32.7993 70.9534 32.906 70.9108 32.97C70.7828 33.098 70.6868 33.0553 70.6228 32.842C70.5588 32.65 70.5161 32.5433 70.4948 32.522C70.4521 32.3513 70.4094 32.17 70.3668 31.978C70.3241 31.8073 70.2814 31.626 70.2388 31.434C70.2174 31.3273 70.2068 31.2207 70.2068 31.114C70.2068 31.0073 70.1854 30.9113 70.1428 30.826C70.1001 30.8687 70.0468 30.9113 69.9828 30.954C69.9188 31.018 69.8548 31.0713 69.7908 31.114C69.7481 31.5193 69.7161 31.9353 69.6948 32.362C69.6948 32.81 69.6734 33.2473 69.6308 33.674C69.6308 33.6953 69.6094 33.6847 69.5668 33.642C69.5241 33.5993 69.5028 33.5673 69.5028 33.546C69.3108 33.226 69.2468 32.9273 69.3108 32.65C69.3748 32.394 69.4388 32.1273 69.5028 31.85C69.5881 31.5727 69.5348 31.2847 69.3428 30.986C69.3214 30.9433 69.3001 30.9007 69.2788 30.858C69.2574 30.8153 69.2254 30.7727 69.1828 30.73C69.1401 30.73 69.1188 30.73 69.1188 30.73C69.0761 31.0713 69.0548 31.402 69.0548 31.722C69.0548 32.0633 69.0334 32.394 68.9908 32.714C68.9908 32.714 68.9481 32.714 68.8628 32.714C68.7774 32.714 68.7348 32.7033 68.7348 32.682C68.7134 32.362 68.6921 32.0313 68.6708 31.69C68.6708 31.37 68.6494 31.0393 68.6068 30.698H68.4468L68.4148 30.666C68.3721 30.666 68.3508 30.666 68.3508 30.666C68.3294 30.9433 68.3188 31.21 68.3188 31.466C68.3188 31.7433 68.2974 32.0207 68.2548 32.298C68.2548 32.3193 68.2121 32.2873 68.1268 32.202C68.0414 32.1593 67.9988 32.1273 67.9988 32.106C67.9561 31.8713 67.9348 31.6473 67.9348 31.434C67.9348 31.2207 67.9241 31.0073 67.9028 30.794C67.8814 30.8153 67.8601 30.8473 67.8388 30.89C67.8174 30.9327 67.8174 30.9327 67.8388 30.89C67.8174 30.954 67.7748 31.018 67.7108 31.082C67.6894 31.1033 67.6574 31.1247 67.6148 31.146C67.5721 31.1887 67.5294 31.2313 67.4868 31.274C67.4228 31.402 67.3801 31.53 67.3588 31.658C67.3374 31.8073 67.2948 31.9567 67.2308 32.106C67.2094 32.1273 67.1881 32.1593 67.1668 32.202C67.1668 32.2447 67.1454 32.2873 67.1028 32.33C67.0601 32.3727 67.0174 32.3727 66.9748 32.33C66.8894 32.2447 66.8361 32.0953 66.8148 31.882C66.7934 31.6687 66.7614 31.53 66.7188 31.466C66.6121 31.3593 66.5161 31.2207 66.4308 31.05C66.3668 30.9007 66.2814 30.7193 66.1748 30.506C66.1534 30.5487 66.1428 30.5807 66.1428 30.602C66.1428 30.6447 66.1321 30.6873 66.1108 30.73C66.0894 30.7513 66.0361 30.7407 65.9508 30.698C65.8868 30.6767 65.8548 30.666 65.8548 30.666C65.7694 30.6233 65.7054 30.5807 65.6628 30.538C65.6841 30.5807 65.6948 30.6553 65.6948 30.762C65.6948 30.8687 65.6521 31.0393 65.5668 31.274C65.5454 31.3593 65.5241 31.434 65.5028 31.498C65.4814 31.562 65.4601 31.6367 65.4388 31.722C65.4174 31.9567 65.4068 32.3193 65.4068 32.81C65.4068 33.322 65.4068 33.8553 65.4068 34.41C65.4068 34.986 65.4068 35.5193 65.4068 36.01C65.4068 36.522 65.3854 36.8953 65.3428 37.13C65.3214 37.3433 65.3001 37.3753 65.2788 37.226C65.2788 37.0767 65.2788 36.8207 65.2788 36.458C65.2788 36.0953 65.2788 35.722 65.2788 35.338C65.2788 34.954 65.2788 34.6553 65.2788 34.442C65.2574 33.802 65.2468 33.2687 65.2468 32.842C65.2468 32.4367 65.2361 32.0313 65.2148 31.626C65.1934 31.242 65.1401 30.7727 65.0548 30.218C64.9694 30.1753 64.8948 30.1327 64.8307 30.09C64.5961 29.9193 64.4788 29.6847 64.4788 29.386V8.714C64.4788 8.47933 64.5641 8.27667 64.7348 8.106C64.9054 7.93533 65.1401 7.85 65.4388 7.85H69.7588C69.9934 7.85 70.2174 7.85 70.4308 7.85C70.6441 7.82867 70.8468 7.87133 71.0388 7.978C71.2734 8.08467 71.4548 8.234 71.5828 8.426C71.7321 8.618 71.8601 8.82067 71.9668 9.034C72.0094 9.07667 72.0414 9.13 72.0628 9.194C72.1054 9.23667 72.1374 9.29 72.1588 9.354L72.3188 9.61C72.5108 9.84467 72.6921 10.122 72.8628 10.442C73.0548 10.7407 73.2361 11.0607 73.4068 11.402L74.5268 13.258C74.7828 13.642 75.0281 14.0367 75.2628 14.442C75.4974 14.8473 75.7321 15.242 75.9668 15.626C76.0094 15.7113 76.0628 15.8073 76.1268 15.914C76.1908 15.9993 76.2441 16.0953 76.2868 16.202L76.4148 16.394L76.5428 16.17C76.5854 16.0633 76.6388 15.9673 76.7028 15.882C76.7668 15.7967 76.8201 15.7113 76.8628 15.626C77.0548 15.3273 77.2468 15.018 77.4388 14.698C77.6308 14.378 77.8228 14.058 78.0148 13.738L78.2388 13.354C78.2388 13.3327 78.2388 13.322 78.2388 13.322C78.2601 13.322 78.2708 13.3113 78.2708 13.29C78.2708 13.29 78.2921 13.2687 78.3348 13.226L79.4228 11.402C79.4441 11.402 79.4548 11.402 79.4548 11.402C79.4548 11.3807 79.4548 11.37 79.4548 11.37C79.6254 11.05 79.7961 10.7407 79.9668 10.442C80.1588 10.1433 80.3294 9.87667 80.4788 9.642L80.6708 9.322C80.7774 9.15133 80.8734 8.99133 80.9588 8.842C81.0654 8.67133 81.1828 8.51133 81.3108 8.362C81.3108 8.34067 81.3214 8.33 81.3428 8.33C81.4494 8.18067 81.5988 8.06333 81.7908 7.978C81.9828 7.87133 82.1854 7.82867 82.3988 7.85C82.6334 7.85 82.8574 7.85 83.0708 7.85H87.4868C87.6148 7.85 87.7108 7.87133 87.7748 7.914C87.8388 7.93533 87.9134 7.96733 87.9988 8.01C88.1908 8.138 88.3081 8.35133 88.3508 8.65C88.3721 8.79933 88.3721 8.95933 88.3508 9.13C88.3508 9.30067 88.3508 9.46067 88.3508 9.61V27.978C88.3508 28.234 88.3614 28.5007 88.3828 28.778C88.4041 29.034 88.3934 29.29 88.3508 29.546ZM111.693 26.634C111.65 26.698 111.597 26.762 111.533 26.826C111.49 26.89 111.448 26.9433 111.405 26.986C111.32 27.0713 111.245 27.1567 111.181 27.242C111.117 27.3273 111.042 27.4127 110.957 27.498C110.872 27.5833 110.776 27.6687 110.669 27.754C110.584 27.8393 110.488 27.9353 110.381 28.042C110.338 28.0847 110.296 28.1167 110.253 28.138C110.253 28.1593 110.232 28.1807 110.189 28.202C110.168 28.2233 110.168 28.2233 110.189 28.202C110.104 28.33 110.05 28.4367 110.029 28.522C110.008 28.5433 109.997 28.5647 109.997 28.586C109.933 28.7353 109.869 28.8847 109.805 29.034C109.762 29.1833 109.709 29.3327 109.645 29.482C109.645 29.5247 109.634 29.5567 109.613 29.578C109.592 29.6847 109.549 29.802 109.485 29.93C109.442 30.0367 109.4 30.1433 109.357 30.25L109.261 30.442C109.197 30.57 109.122 30.6873 109.037 30.794C108.973 30.922 108.888 31.018 108.781 31.082C108.76 31.3167 108.781 31.6153 108.845 31.978C108.93 32.3407 108.994 32.6927 109.037 33.034C109.101 33.3753 109.112 33.6527 109.069 33.866C109.026 34.0793 108.888 34.1647 108.653 34.122C108.333 34.058 108.184 33.834 108.205 33.45C108.226 33.0873 108.29 32.6607 108.397 32.17C108.525 31.7007 108.568 31.306 108.525 30.986C108.525 30.986 108.504 30.9647 108.461 30.922C108.418 30.8793 108.397 30.858 108.397 30.858C108.397 30.8367 108.386 30.826 108.365 30.826C108.365 30.826 108.365 30.8153 108.365 30.794L108.269 30.634C108.226 30.5273 108.184 30.4313 108.141 30.346C108.098 30.2607 108.045 30.1753 107.981 30.09C107.96 30.09 107.949 30.0793 107.949 30.058L107.757 30.154H107.725C107.704 30.4527 107.682 30.7407 107.661 31.018C107.661 31.3167 107.65 31.6153 107.629 31.914C107.608 32.106 107.597 32.3727 107.597 32.714C107.597 33.0767 107.597 33.3647 107.597 33.578C107.597 33.8127 107.565 33.834 107.501 33.642C107.437 33.4073 107.394 33.1727 107.373 32.938C107.373 32.7247 107.373 32.5007 107.373 32.266C107.309 32.266 107.277 32.2553 107.277 32.234C107.256 32.0847 107.256 31.914 107.277 31.722C107.32 31.5513 107.352 31.37 107.373 31.178V31.018C107.373 30.9967 107.362 31.0073 107.341 31.05C107.32 31.0927 107.298 31.114 107.277 31.114C107.234 31.0713 107.202 31.0287 107.181 30.986C107.181 30.9433 107.17 30.9113 107.149 30.89C107.128 30.8687 107.106 30.8047 107.085 30.698C107.064 30.5913 107.032 30.4847 106.989 30.378C106.861 30.4633 106.808 30.6127 106.829 30.826C106.85 31.0607 106.893 31.306 106.957 31.562C107.021 31.8393 107.042 32.074 107.021 32.266C107.021 32.2873 107 32.298 106.957 32.298C106.936 32.3193 106.914 32.3513 106.893 32.394C106.872 32.4153 106.85 32.458 106.829 32.522C106.808 32.586 106.786 32.5967 106.765 32.554C106.744 32.2553 106.733 31.9567 106.733 31.658C106.733 31.3593 106.722 31.0713 106.701 30.794C106.637 31.0287 106.573 31.2847 106.509 31.562C106.466 31.8393 106.392 32.0953 106.285 32.33C106.264 32.394 106.232 32.458 106.189 32.522C106.146 32.6073 106.093 32.6607 106.029 32.682C105.922 32.746 105.826 32.714 105.741 32.586C105.698 32.5433 105.656 32.49 105.613 32.426C105.592 32.362 105.57 32.3193 105.549 32.298C105.4 32.106 105.229 31.914 105.037 31.722C104.866 31.53 104.717 31.3273 104.589 31.114C104.589 31.0927 104.578 31.0713 104.557 31.05C104.557 31.05 104.557 31.0393 104.557 31.018C104.536 31.018 104.525 31.0073 104.525 30.986C104.504 30.9433 104.482 30.89 104.461 30.826C104.44 30.7833 104.418 30.7407 104.397 30.698C104.354 30.8047 104.333 30.922 104.333 31.05C104.354 31.1993 104.333 31.338 104.269 31.466C104.248 31.4873 104.226 31.4553 104.205 31.37C104.184 31.306 104.162 31.2527 104.141 31.21C104.098 31.082 104.077 30.9753 104.077 30.89C104.034 30.9753 103.981 31.0607 103.917 31.146C103.874 31.2527 103.81 31.3487 103.725 31.434C103.576 31.5833 103.48 31.786 103.437 32.042C103.394 32.3193 103.384 32.6073 103.405 32.906C103.362 32.906 103.309 32.938 103.245 33.002C103.202 33.066 103.16 33.13 103.117 33.194C103.074 33.258 103.042 33.3433 103.021 33.45C103.021 33.0233 103.021 32.6287 103.021 32.266C103.042 31.9033 103.042 31.626 103.021 31.434C102.914 31.3487 102.808 31.242 102.701 31.114C102.616 31.0073 102.541 30.922 102.477 30.858C102.456 30.8153 102.413 30.762 102.349 30.698C102.328 30.698 102.296 30.6767 102.253 30.634C102.168 30.5913 102.114 30.6233 102.093 30.73C102.072 30.922 102.061 31.114 102.061 31.306C102.061 31.5193 102.04 31.722 101.997 31.914C101.976 31.9567 101.954 31.9247 101.933 31.818C101.933 31.7113 101.922 31.6367 101.901 31.594L101.805 30.57H101.773C99.6397 30.5273 97.7943 30.1753 96.237 29.514C94.6797 28.8313 93.485 27.8287 92.653 26.506C92.525 26.3353 92.4077 26.154 92.301 25.962C92.2157 25.7487 92.1303 25.5353 92.045 25.322C91.981 25.194 91.9277 25.066 91.885 24.938C91.8423 24.81 91.7997 24.682 91.757 24.554C91.6717 24.426 91.597 24.202 91.533 23.882C91.4263 23.5407 91.3517 23.114 91.309 22.602C91.2663 22.09 91.245 21.578 91.245 21.066C91.245 20.5327 91.245 20.106 91.245 19.786C91.245 19.594 91.245 19.402 91.245 19.21C91.245 19.018 91.2557 18.826 91.277 18.634V17.354C91.277 16.9273 91.277 16.49 91.277 16.042C91.2983 15.5727 91.3517 15.1353 91.437 14.73C91.629 13.5567 92.013 12.522 92.589 11.626L92.781 11.306C92.8023 11.2847 92.813 11.2633 92.813 11.242C92.8343 11.2207 92.8557 11.1993 92.877 11.178C92.9197 11.114 92.9623 11.05 93.005 10.986C93.069 10.922 93.1223 10.8687 93.165 10.826C94.0823 9.75933 95.277 8.94867 96.749 8.394C98.2423 7.83933 99.9383 7.55133 101.837 7.53H102.253C102.445 7.53 102.648 7.53 102.861 7.53C103.074 7.53 103.256 7.54067 103.405 7.562C103.469 7.562 103.533 7.57267 103.597 7.594C103.661 7.594 103.725 7.594 103.789 7.594L104.429 7.658C104.536 7.67933 104.642 7.70067 104.749 7.722C104.856 7.722 104.952 7.73267 105.037 7.754C105.528 7.818 106.008 7.914 106.477 8.042C106.498 8.042 106.509 8.05267 106.509 8.074C107.682 8.37267 108.696 8.78867 109.549 9.322C110.424 9.834 111.149 10.4313 111.725 11.114C111.832 11.242 111.938 11.3807 112.045 11.53C112.152 11.658 112.248 11.8073 112.333 11.978C112.333 11.9993 112.354 12.0313 112.397 12.074C112.44 12.1593 112.482 12.2553 112.525 12.362C112.589 12.4687 112.642 12.5753 112.685 12.682C112.877 13.13 113.005 13.5993 113.069 14.09V14.25C113.09 14.314 113.101 14.378 113.101 14.442C113.101 14.506 113.101 14.57 113.101 14.634V14.826C113.101 14.8687 113.08 14.9113 113.037 14.954C113.037 14.954 113.026 14.9647 113.005 14.986C113.005 14.986 113.005 14.9967 113.005 15.018C113.005 15.018 112.984 15.0393 112.941 15.082C112.984 15.082 112.994 15.0927 112.973 15.114C112.952 15.114 112.909 15.146 112.845 15.21C112.824 15.2313 112.802 15.2633 112.781 15.306C112.76 15.3273 112.738 15.3593 112.717 15.402C112.696 15.4233 112.685 15.4447 112.685 15.466C112.685 15.4873 112.674 15.5087 112.653 15.53C112.632 15.5513 112.61 15.594 112.589 15.658C112.589 15.722 112.568 15.7433 112.525 15.722C112.482 15.722 112.461 15.7007 112.461 15.658C112.461 15.594 112.45 15.5407 112.429 15.498C112.408 15.498 112.397 15.498 112.397 15.498C112.397 15.4767 112.397 15.466 112.397 15.466C112.376 15.4447 112.344 15.4447 112.301 15.466C112.28 15.4873 112.248 15.5087 112.205 15.53C112.162 15.5727 112.141 15.594 112.141 15.594C112.12 15.6153 112.077 15.626 112.013 15.626C111.97 15.626 111.928 15.6367 111.885 15.658C111.736 15.7007 111.576 15.754 111.405 15.818C111.256 15.882 111.096 15.9033 110.925 15.882C110.776 15.882 110.637 15.8607 110.509 15.818C110.402 15.754 110.274 15.7113 110.125 15.69C110.018 15.6473 109.901 15.6367 109.773 15.658C109.666 15.6793 109.549 15.69 109.421 15.69C109.378 15.69 109.336 15.69 109.293 15.69C109.25 15.6687 109.208 15.658 109.165 15.658C109.058 15.6793 108.952 15.7433 108.845 15.85C108.76 15.9353 108.674 16.01 108.589 16.074C108.504 16.138 108.408 16.1807 108.301 16.202C108.194 16.2233 108.088 16.2553 107.981 16.298C107.874 16.362 107.778 16.4473 107.693 16.554C107.608 16.6393 107.512 16.7033 107.405 16.746H112.237C112.408 16.746 112.578 16.7993 112.749 16.906L112.941 17.098C113.048 17.2473 113.101 17.418 113.101 17.61C113.101 17.7807 113.101 17.9513 113.101 18.122V20.01C113.101 20.394 113.101 20.778 113.101 21.162C113.122 21.546 113.122 21.93 113.101 22.314C113.08 22.8473 113.016 23.3487 112.909 23.818C112.802 24.266 112.664 24.7033 112.493 25.13L112.205 25.77C112.12 25.9193 112.034 26.0687 111.949 26.218C111.885 26.3673 111.8 26.506 111.693 26.634ZM102.125 24.33H102.221C102.648 24.33 103.074 24.266 103.501 24.138C103.949 23.9887 104.301 23.7433 104.557 23.402C104.664 23.2313 104.738 23.0713 104.781 22.922C104.845 22.7513 104.888 22.5913 104.909 22.442C104.909 22.4207 104.909 22.3887 104.909 22.346C104.93 22.3033 104.941 22.2607 104.941 22.218L104.845 22.026C104.781 22.0473 104.728 22.1007 104.685 22.186C104.642 22.2713 104.6 22.3353 104.557 22.378C104.493 22.4633 104.418 22.538 104.333 22.602C104.269 22.666 104.194 22.73 104.109 22.794C104.066 22.8153 104.024 22.8367 103.981 22.858C103.938 22.858 103.896 22.858 103.853 22.858C103.704 22.9007 103.565 22.858 103.437 22.73L103.277 22.57C103.192 22.4633 103.128 22.346 103.085 22.218C103.042 22.09 102.989 21.9727 102.925 21.866V21.834C102.818 21.77 102.722 21.6633 102.637 21.514C102.637 21.4927 102.626 21.482 102.605 21.482C102.605 21.4607 102.605 21.4393 102.605 21.418C102.605 21.3967 102.594 21.3753 102.573 21.354C102.573 21.3327 102.573 21.3113 102.573 21.29V21.258C102.552 21.1087 102.541 20.9593 102.541 20.81C102.562 20.6607 102.573 20.522 102.573 20.394V18.762C102.573 18.57 102.562 18.3673 102.541 18.154C102.52 17.9193 102.53 17.706 102.573 17.514C102.616 17.322 102.669 17.1833 102.733 17.098C102.776 17.0553 102.797 17.034 102.797 17.034C102.968 16.842 103.181 16.746 103.437 16.746H106.861C106.754 16.7033 106.648 16.65 106.541 16.586C106.434 16.522 106.338 16.4687 106.253 16.426C105.976 16.2553 105.698 16.106 105.421 15.978C105.144 15.8287 104.898 15.626 104.685 15.37L104.493 15.146C104.472 15.1247 104.45 15.1033 104.429 15.082C104.429 15.0607 104.418 15.0393 104.397 15.018L104.301 14.922C104.237 14.8367 104.173 14.7513 104.109 14.666C104.045 14.5807 103.97 14.4953 103.885 14.41L103.693 14.25L103.469 14.474C103.448 14.4527 103.437 14.4207 103.437 14.378C103.373 14.3993 103.309 14.4207 103.245 14.442C103.202 14.442 103.16 14.4207 103.117 14.378C103.138 14.5273 103.149 14.6873 103.149 14.858C103.17 15.0287 103.117 15.114 102.989 15.114C102.84 15.114 102.786 14.986 102.829 14.73C102.893 14.474 102.904 14.2713 102.861 14.122C102.861 14.1007 102.84 14.09 102.797 14.09C102.776 14.0687 102.754 14.0793 102.733 14.122C102.712 14.2713 102.701 14.442 102.701 14.634C102.701 14.8047 102.669 14.9753 102.605 15.146C102.584 15.1673 102.562 15.146 102.541 15.082C102.52 15.018 102.498 14.9647 102.477 14.922L102.349 14.602C102.328 14.538 102.306 14.474 102.285 14.41C102.264 14.3247 102.242 14.2393 102.221 14.154C102.157 14.218 102.093 14.2713 102.029 14.314C101.986 14.3567 101.912 14.3887 101.805 14.41C101.784 14.4313 101.73 14.4527 101.645 14.474C101.56 14.474 101.496 14.4633 101.453 14.442C101.453 14.442 101.442 14.442 101.421 14.442C101.421 14.442 101.421 14.4313 101.421 14.41C101.378 14.3673 101.357 14.3247 101.357 14.282C101.357 14.2393 101.346 14.2073 101.325 14.186C101.325 14.1433 101.325 14.1113 101.325 14.09C101.24 14.09 101.165 14.1007 101.101 14.122C101.016 14.2713 100.984 14.3673 101.005 14.41C101.048 14.4313 101.005 14.5167 100.877 14.666C100.749 14.8153 100.642 14.8047 100.557 14.634C100.493 14.4633 100.418 14.3673 100.333 14.346C100.333 14.346 100.301 14.378 100.237 14.442L100.205 14.474L100.045 14.666C100.024 14.6873 100.013 14.7087 100.013 14.73C100.013 14.7513 100.002 14.7727 99.981 14.794C99.8317 15.0713 99.7357 15.37 99.693 15.69C99.6503 15.9887 99.629 16.2873 99.629 16.586C99.629 16.6927 99.6183 16.8313 99.597 17.002C99.597 17.1513 99.597 17.3113 99.597 17.482V20.17C99.597 20.3833 99.597 20.586 99.597 20.778C99.597 20.9487 99.6077 21.098 99.629 21.226C99.629 21.3753 99.629 21.5247 99.629 21.674C99.629 21.802 99.6397 21.9407 99.661 22.09C99.7037 22.3033 99.757 22.5273 99.821 22.762C99.885 22.9753 99.981 23.178 100.109 23.37C100.28 23.6473 100.504 23.8607 100.781 24.01C101.058 24.1593 101.346 24.2553 101.645 24.298C101.73 24.298 101.805 24.3087 101.869 24.33C101.954 24.33 102.04 24.33 102.125 24.33ZM103.405 32.906C103.49 32.9273 103.544 33.0553 103.565 33.29C103.586 33.5247 103.586 33.7913 103.565 34.09C103.544 33.8767 103.512 33.674 103.469 33.482C103.448 33.29 103.426 33.098 103.405 32.906ZM103.117 36.714C103.16 36.9273 103.16 36.938 103.117 36.746C103.074 36.5753 103.021 36.2873 102.957 35.882C102.914 35.498 102.882 35.0713 102.861 34.602C102.861 34.154 102.914 33.77 103.021 33.45C103 34.09 102.989 34.7193 102.989 35.338C102.989 35.9567 103.032 36.4153 103.117 36.714ZM103.373 36.458C103.33 36.65 103.32 36.6287 103.341 36.394C103.384 36.1593 103.426 35.818 103.469 35.37C103.533 34.922 103.565 34.4953 103.565 34.09C103.65 34.5593 103.693 35.0073 103.693 35.434C103.714 35.882 103.608 36.2233 103.373 36.458Z" fill="#15C196"/>
<path d="M119 6.25L135 19.25L119 32.25" stroke="#15C196" stroke-width="2" stroke-linecap="round" stroke-linejoin="round"/>
</g>
<defs>
<clipPath id="clip0_41_1183">
<rect width="135" height="38.5" fill="white"/>
</clipPath>
</defs>
</svg>
